<svg width="28" height="28" viewBox="0 0 28 28" fill="none" xmlns="http://www.w3.org/2000/svg">
<circle cx="14" cy="14" r="14" fill="#AEC400"/>
<path d="M20.6666 20.5V18.8333C20.6666 17.9493 20.3155 17.1014 19.6903 16.4763C19.0652 15.8512 18.2174 15.5 17.3333 15.5H10.6666C9.78259 15.5 8.93474 15.8512 8.30962 16.4763C7.6845 17.1014 7.33331 17.9493 7.33331 18.8333V20.5" stroke="#02390B" stroke-width="2" stroke-linecap="round" stroke-linejoin="round"/>
<path d="M14 12.1667C15.841 12.1667 17.3334 10.6743 17.3334 8.83333C17.3334 6.99238 15.841 5.5 14 5.5C12.1591 5.5 10.6667 6.99238 10.6667 8.83333C10.6667 10.6743 12.1591 12.1667 14 12.1667Z" stroke="#02390B" stroke-width="2" stroke-linecap="round" stroke-linejoin="round"/>
</svg>
